IKResults-ET2
version=1
nRows=17
nColumns=24
inDegrees=yes

Units are S.I. units (second, meters, Newtons, ...)
If the header above contains a line with 'inDegrees', this indicates whether rotational values are in degrees (yes) or radians (no).

endheader
time	pelvis_tilt	pelvis_list	pelvis_rotation	pelvis_tx	pelvis_ty	pelvis_tz	hip_flexion_r	hip_adduction_r	hip_rotation_r	knee_angle_r	ankle_angle_r	subtalar_angle_r	mtp_angle_r	hip_flexion_l	hip_adduction_l	hip_rotation_l	knee_angle_l	ankle_angle_l	subtalar_angle_l	mtp_angle_l	lumbar_extension	lumbar_bending	lumbar_rotation
      5.40000000	     -2.30569193	      3.51606981	    185.48811326	     -0.23812824	      1.00380238	     -0.06802121	    187.62613043	   -188.09548193	   -178.88460678	    -20.01944023	     12.29461378	      1.95741774	      0.00000000	     24.79920650	     -4.03391102	      1.47992430	    -65.87416331	      9.06180535	      2.66618779	      0.00000000	    -18.61367005	      3.13514518	      1.90231109
      5.41000000	     -2.58222515	      3.32747095	    185.06423697	     -0.25231632	      1.00507670	     -0.06764358	    185.98223038	   -188.09436024	   -177.80814705	    -19.30203038	     12.67069272	      1.38035035	      0.00000000	     25.75467864	     -3.92436176	      1.34846546	    -64.11759932	     10.14476178	      3.25063610	      0.00000000	    -18.99452117	      2.79846094	      2.34324112
      5.42000000	     -2.74232074	      3.12805669	    184.54512042	     -0.26606117	      1.00575365	     -0.06742611	    184.77902801	   -187.92292160	   -177.59921808	    -19.11834772	     13.35898738	      2.08699296	      0.00000000	     26.78613390	     -3.84093463	      1.11010793	    -62.21861944	     10.74767346	      3.26785314	      0.00000000	    -19.25482852	      2.40254957	      2.91182763
      5.43000000	     -2.90017417	      3.06075106	    184.23542015	     -0.27984607	      1.00609153	     -0.06700132	    183.47051545	   -187.93086364	   -177.17427587	    -18.69269329	     13.77014663	      1.97263077	      0.00000000	     27.80704272	     -3.83894502	      1.11997452	    -60.21908654	     11.16132521	      3.07334449	      0.00000000	    -19.47278836	      2.17566602	      3.09589741
      5.44000000	     -3.06782145	      2.98867484	    183.83363961	     -0.29395536	      1.00628478	     -0.06661679	    182.11827576	   -187.90344725	   -176.72116455	    -18.24312561	     14.36039296	      2.23250585	      0.00000000	     28.67944193	     -3.88945030	      0.98975191	    -58.01175864	     11.48066092	      2.54471765	      0.00000000	    -19.76213058	      1.94955135	      3.82806459
      5.45000000	     -3.17658914	      2.96329811	    183.44375245	     -0.30812433	      1.00618930	     -0.06621454	    180.85421214	   -187.91083634	   -176.25277200	    -17.85292584	     14.75149137	      2.19474219	      0.00000000	     29.55538401	     -4.01929635	      0.81667233	    -55.66479845	     11.55557227	      2.00994892	      0.00000000	    -19.90949725	      1.75671257	      4.32281857
      5.46000000	     -3.36326689	      2.80174625	    182.94705862	     -0.32314419	      1.00628363	     -0.06565878	    179.39835587	   -187.70727052	   -175.76312660	    -17.37136134	     15.23869860	      2.44263439	      0.00000000	     30.05123897	     -4.06380699	      0.50745588	    -53.00527138	     11.77724573	      1.53488893	      0.00000000	    -20.11532544	      1.41331836	      4.85691749
      5.47000000	     -3.43932601	      2.80045681	    182.57327212	     -0.33772548	      1.00569991	     -0.06506691	    178.14245697	   -187.66514439	   -175.37857555	    -16.96637729	     15.74150713	      2.37889445	      0.00000000	     30.72986747	     -4.22918898	      0.31865938	    -50.38731996	     12.18473389	      1.25270752	      0.00000000	    -20.16934232	      1.23608177	      5.05999456
      5.48000000	     -3.41116071	      2.80399000	    182.23930628	     -0.35227265	      1.00482041	     -0.06436735	    177.03494021	   -187.58470280	   -175.09428254	    -16.60335223	     16.20871621	      2.98212707	      0.00000000	     31.39521056	     -4.38387835	      0.14679032	    -47.54221936	     12.62465403	      1.10066993	      0.00000000	    -20.19180571	      1.11566066	      5.73158850
      5.49000000	     -3.35482480	      2.80918463	    181.88531932	     -0.36699666	      1.00373246	     -0.06360136	    175.95082574	   -187.49647911	   -174.84627371	    -16.25967311	     16.65111018	      3.23357233	      0.00000000	     31.94245224	     -4.53311808	      0.02273646	    -44.57954923	     13.22268580	      1.33081271	      0.00000000	    -20.15389123	      0.97676054	      6.16235397
      5.50000000	     -3.24916080	      2.87560165	    181.55305474	     -0.38168308	      1.00234013	     -0.06287229	    174.93199372	   -187.46328636	   -174.55896353	    -15.91871406	     17.09207455	      3.44830441	      0.00000000	     32.47077844	     -4.76051512	     -0.09683456	    -41.57498291	     13.71326921	      1.81955484	      0.00000000	    -20.05538162	      0.91794211	      6.54208807
      5.51000000	     -3.09117301	      2.93549474	    181.20737934	     -0.39647467	      1.00073129	     -0.06205384	    174.05210239	   -187.39236906	   -174.42760948	    -15.73592130	     17.61013341	      3.91308796	      0.00000000	     32.92250051	     -4.95779454	     -0.18523383	    -38.42994601	     14.14675192	      2.35613526	      0.00000000	    -19.89999584	      0.84962005	      6.92537901
      5.52000000	     -2.91643294	      2.97140714	    180.83185234	     -0.41140044	      0.99900384	     -0.06120097	    173.21380316	   -187.27647346	   -174.32627113	    -15.61545333	     17.99834170	      4.32682098	      0.00000000	     33.22703113	     -5.13580632	     -0.30759862	    -35.15110519	     14.55450703	      2.87381866	      0.00000000	    -19.71733566	      0.75902350	      7.27014620
      5.53000000	     -2.78107118	      3.00920621	    180.49061774	     -0.42656629	      0.99711626	     -0.06016432	    172.38214988	   -187.14015111	   -174.40886000	    -15.61010881	     18.51345262	      4.95955776	      0.00000000	     33.39177204	     -5.28954152	     -0.35051287	    -31.89326977	     14.99997173	      3.54644824	      0.00000000	    -19.55529826	      0.67907298	      7.59832810
      5.54000000	     -2.60949013	      3.03658242	    180.12839451	     -0.44175522	      0.99502205	     -0.05910399	    171.61459148	   -186.99939232	   -174.43157723	    -15.64480462	     18.95861945	      5.47111697	      0.00000000	     33.48585238	     -5.42821272	     -0.34673877	    -28.56066954	     15.41238663	      3.98523616	      0.00000000	    -19.35295538	      0.59569747	      7.92730042
      5.55000000	     -2.35183689	      3.03904288	    179.64635975	     -0.45671374	      0.99271655	     -0.05834595	    171.07296859	   -186.82749223	   -174.36931259	    -15.93306055	     19.41708761	      5.91581436	      0.00000000	     33.58229287	     -5.63541699	     -0.56689847	    -25.37096375	     15.75783315	      4.48649694	      0.00000000	    -19.07879901	      0.43892402	      8.30651678
      5.56000000	     -2.09247219	      3.03085944	    179.23118440	     -0.47198739	      0.99027391	     -0.05728791	    170.54329202	   -186.63656605	   -174.40172880	    -16.25910828	     19.86643410	      6.34694967	      0.00000000	     33.60173345	     -5.76834290	     -0.68495520	    -22.28216873	     16.14026863	      4.88423224	      0.00000000	    -18.78485240	      0.30455831	      8.68430224
